<?xml version="1.0" encoding="iso-8859-1"?>
<!-- Generator: Adobe Illustrator 19.0.0, SVG Export Plug-In . SVG Version: 6.00 Build 0)  -->
<svg version="1.1" id="Layer_1" xmlns="http://www.w3.org/2000/svg" xmlns:xlink="http://www.w3.org/1999/xlink" x="0px" y="0px"
	 viewBox="0 0 512 512" style="enable-background:new 0 0 512 512;" xml:space="preserve">
<g>
	<path style="fill:#EE705C;" d="M506.605,197.101l-76.712-84.383c-3.928-4.317-9.498-6.788-15.342-6.788h-96.759v300.138h44.138
		c0-29.246,23.711-52.966,52.966-52.966c29.255,0,52.966,23.72,52.966,52.966h44.138v-195.01
		C511.999,205.893,510.075,200.914,506.605,197.101"/>
	<path style="fill:#FAC75A;" d="M317.793,300.138H0V78.336c0-14.009,11.361-25.37,25.37-25.37h267.052
		c14.009,0,25.37,11.361,25.37,25.37V300.138z"/>
	<path style="fill:#E6E6E6;" d="M368.275,247.172h143.722V211.05c0-5.155-1.924-10.134-5.394-13.948l-50.776-55.861h-87.552
		c-3.505,0-6.347,2.842-6.347,6.347v93.237C361.928,244.33,364.771,247.172,368.275,247.172"/>
	<g>
		<path style="fill:#5B5B5B;" d="M467.862,406.069c0,29.255-23.711,52.966-52.966,52.966s-52.966-23.711-52.966-52.966
			s23.711-52.966,52.966-52.966S467.862,376.814,467.862,406.069"/>
		<path style="fill:#5B5B5B;" d="M150.069,406.069c0,29.255-23.711,52.966-52.966,52.966s-52.966-23.711-52.966-52.966
			s23.711-52.966,52.966-52.966S150.069,376.814,150.069,406.069"/>
	</g>
	<path style="fill:#C64533;" d="M0,300.138v83.871c0,12.182,9.878,22.06,22.06,22.06h22.078c0-29.255,23.711-52.966,52.966-52.966
		s52.966,23.711,52.966,52.966h167.724V300.138H0z"/>
	<g>
		<path style="fill:#B2B2B2;" d="M114.759,406.069c0,9.754-7.901,17.655-17.655,17.655s-17.655-7.901-17.655-17.655
			s7.901-17.655,17.655-17.655S114.759,396.314,114.759,406.069"/>
		<path style="fill:#B2B2B2;" d="M432.552,406.069c0,9.754-7.901,17.655-17.655,17.655s-17.655-7.901-17.655-17.655
			s7.901-17.655,17.655-17.655S432.552,396.314,432.552,406.069"/>
	</g>
	<path style="fill:#F4A29B;" d="M512,300.138h-52.966c-4.882,0-8.828,3.946-8.828,8.828s3.946,8.828,8.828,8.828H512V300.138z"/>
	<g>
		<path style="fill:#D8AC4E;" d="M132.414,229.517c4.873,0,8.828-3.946,8.828-8.828s-3.955-8.828-8.828-8.828H0v17.655H132.414z"/>
		<path style="fill:#D8AC4E;" d="M97.103,185.379c4.873,0,8.828-3.946,8.828-8.828c0-4.882-3.955-8.828-8.828-8.828H0v17.655H97.103
			z"/>
	</g>
</g>
<g>
</g>
<g>
</g>
<g>
</g>
<g>
</g>
<g>
</g>
<g>
</g>
<g>
</g>
<g>
</g>
<g>
</g>
<g>
</g>
<g>
</g>
<g>
</g>
<g>
</g>
<g>
</g>
<g>
</g>
</svg>
